<svg width="32" height="32" viewBox="0 0 32 32" fill="none" xmlns="http://www.w3.org/2000/svg">
<path d="M23.6768 1.96034C19.2923 3.93522 16.34 5.58878 14.436 6.98868C12.4806 8.42631 11.8284 9.45398 11.6731 10.1019C11.5474 10.6262 11.6909 11.1681 12.3458 11.9119C13.0295 12.6883 14.0656 13.4462 15.3004 14.3264C15.3515 14.3628 15.4029 14.3994 15.4547 14.4363L15.4647 14.4434C16.5945 15.2479 17.8661 16.1535 18.8422 17.1656C19.8749 18.2366 20.7672 19.6193 20.6931 21.3555C20.62 23.0683 19.6212 24.7403 17.8045 26.4439C16.2727 27.8803 14.047 29.4459 10.9681 31.1918C12.8852 31.8276 14.9556 32.1085 17.0953 31.9617C25.9108 31.3567 32.5668 23.72 31.9618 14.9046C31.5741 9.25565 28.2991 4.49348 23.6768 1.96034Z" fill="#12A594"/>
<path d="M20.2111 0.560268C16.9658 2.11922 14.5528 3.5141 12.8187 4.78904C10.7123 6.33772 9.40406 7.85567 9.01811 9.46535C8.60254 11.1985 9.33684 12.6261 10.2968 13.7163C11.228 14.7739 12.5438 15.7144 13.7157 16.5498L13.7826 16.5974C14.9933 17.4603 16.0807 18.2353 16.8769 19.0609C17.6785 19.8922 17.9934 20.5814 17.9653 21.2392C17.9362 21.9205 17.5234 22.9648 15.937 24.4524C14.3723 25.9196 11.817 27.6741 7.86784 29.7803C3.48682 27.1896 0.412974 22.5569 0.0381792 17.0954C-0.566774 8.2799 6.08917 0.643132 14.9046 0.0381791C16.7424 -0.0879338 18.5289 0.101501 20.2111 0.560268Z" fill="#8E4EC6"/>
</svg>
